<mxfile host="Electron" modified="2023-09-11T12:36:37.456Z" agent="Mozilla/5.0 (X11; Linux x86_64) AppleWebKit/537.36 (KHTML, like Gecko) draw.io/21.6.8 Chrome/114.0.5735.289 Electron/25.5.0 Safari/537.36" etag="TlwITHxdRReCh0GEFoRj" version="21.6.8" type="device">
  <diagram name="Page-1" id="w6RI1qikv7BHpk2CagX-">
    <mxGraphModel dx="880" dy="531" grid="1" gridSize="10" guides="1" tooltips="1" connect="1" arrows="1" fold="1" page="1" pageScale="1" pageWidth="850" pageHeight="1100" math="0" shadow="0">
      <root>
        <mxCell id="0" />
        <mxCell id="1" parent="0" />
        <mxCell id="Wb0BW2GQ6Cd4-wxSX-93-1" value="&lt;font style=&quot;font-size: 18px;&quot;&gt;Mulai&lt;/font&gt;" style="ellipse;whiteSpace=wrap;html=1;" vertex="1" parent="1">
          <mxGeometry x="365" y="90" width="120" height="80" as="geometry" />
        </mxCell>
        <mxCell id="Wb0BW2GQ6Cd4-wxSX-93-2" value="&lt;font style=&quot;font-size: 14px;&quot;&gt;Input bilangan N&lt;/font&gt;" style="rounded=0;whiteSpace=wrap;html=1;" vertex="1" parent="1">
          <mxGeometry x="365" y="200" width="120" height="60" as="geometry" />
        </mxCell>
        <mxCell id="Wb0BW2GQ6Cd4-wxSX-93-3" value="&lt;font style=&quot;font-size: 14px;&quot;&gt;N ganjil atau genap?&lt;/font&gt;" style="rhombus;whiteSpace=wrap;html=1;" vertex="1" parent="1">
          <mxGeometry x="337" y="290" width="177" height="150" as="geometry" />
        </mxCell>
        <mxCell id="Wb0BW2GQ6Cd4-wxSX-93-4" value="&lt;font style=&quot;font-size: 14px;&quot;&gt;N ganjil cetak &quot;Aneh&quot;&lt;/font&gt;" style="rounded=0;whiteSpace=wrap;html=1;" vertex="1" parent="1">
          <mxGeometry x="365" y="480" width="120" height="60" as="geometry" />
        </mxCell>
        <mxCell id="Wb0BW2GQ6Cd4-wxSX-93-5" value="&lt;font style=&quot;font-size: 14px;&quot;&gt;N genap cetak &quot;TIdak Aneh&quot;&lt;/font&gt;" style="rounded=0;whiteSpace=wrap;html=1;" vertex="1" parent="1">
          <mxGeometry x="570" y="480" width="120" height="60" as="geometry" />
        </mxCell>
      </root>
    </mxGraphModel>
  </diagram>
</mxfile>
